<mxfile host="app.diagrams.net" modified="2024-09-29T03:40:10.711Z" agent="Mozilla/5.0 (X11; Linux x86_64) AppleWebKit/537.36 (KHTML, like Gecko) Chrome/129.0.0.0 Safari/537.36" etag="HlOCiwQGMTvvBIJQI7ts" version="24.5.2" type="device">
  <diagram name="PÃ¡gina-1" id="dYV3Oxek5W3WX7cQetHe">
    <mxGraphModel dx="988" dy="569" grid="1" gridSize="10" guides="1" tooltips="1" connect="1" arrows="1" fold="1" page="1" pageScale="1" pageWidth="850" pageHeight="1100" math="0" shadow="0">
      <root>
        <mxCell id="0" />
        <mxCell id="1" parent="0" />
        <mxCell id="r3oT0aFOvlcMidn9T6en-24" style="edgeStyle=orthogonalEdgeStyle;rounded=0;orthogonalLoop=1;jettySize=auto;html=1;exitX=1;exitY=0.5;exitDx=0;exitDy=0;entryX=0;entryY=0.5;entryDx=0;entryDy=0;" edge="1" parent="1" source="r3oT0aFOvlcMidn9T6en-1" target="r3oT0aFOvlcMidn9T6en-3">
          <mxGeometry relative="1" as="geometry" />
        </mxCell>
        <mxCell id="r3oT0aFOvlcMidn9T6en-1" value="" style="image;html=1;image=img/lib/clip_art/computers/Laptop_128x128.png" vertex="1" parent="1">
          <mxGeometry x="590" y="153" width="80" height="80" as="geometry" />
        </mxCell>
        <mxCell id="r3oT0aFOvlcMidn9T6en-2" value="" style="image;html=1;image=img/lib/clip_art/computers/Database_128x128.png" vertex="1" parent="1">
          <mxGeometry x="710" y="300" width="80" height="80" as="geometry" />
        </mxCell>
        <mxCell id="r3oT0aFOvlcMidn9T6en-25" style="edgeStyle=orthogonalEdgeStyle;rounded=0;orthogonalLoop=1;jettySize=auto;html=1;exitX=0.5;exitY=1;exitDx=0;exitDy=0;entryX=0.5;entryY=0;entryDx=0;entryDy=0;" edge="1" parent="1" source="r3oT0aFOvlcMidn9T6en-3" target="r3oT0aFOvlcMidn9T6en-2">
          <mxGeometry relative="1" as="geometry" />
        </mxCell>
        <mxCell id="r3oT0aFOvlcMidn9T6en-42" style="edgeStyle=orthogonalEdgeStyle;rounded=0;orthogonalLoop=1;jettySize=auto;html=1;exitX=0.5;exitY=0;exitDx=0;exitDy=0;entryX=0.5;entryY=1;entryDx=0;entryDy=0;" edge="1" parent="1" source="r3oT0aFOvlcMidn9T6en-3" target="r3oT0aFOvlcMidn9T6en-41">
          <mxGeometry relative="1" as="geometry" />
        </mxCell>
        <mxCell id="r3oT0aFOvlcMidn9T6en-3" value="" style="image;html=1;image=img/lib/clip_art/computers/Software_128x128.png" vertex="1" parent="1">
          <mxGeometry x="710" y="153" width="80" height="80" as="geometry" />
        </mxCell>
        <mxCell id="r3oT0aFOvlcMidn9T6en-4" value="" style="sketch=0;pointerEvents=1;shadow=0;dashed=0;html=1;strokeColor=none;fillColor=#505050;labelPosition=center;verticalLabelPosition=bottom;verticalAlign=top;outlineConnect=0;align=center;shape=mxgraph.office.concepts.node_generic;" vertex="1" parent="1">
          <mxGeometry x="70" y="166" width="46" height="52" as="geometry" />
        </mxCell>
        <mxCell id="r3oT0aFOvlcMidn9T6en-5" value="" style="sketch=0;pointerEvents=1;shadow=0;dashed=0;html=1;strokeColor=none;labelPosition=center;verticalLabelPosition=bottom;verticalAlign=top;outlineConnect=0;align=center;shape=mxgraph.office.concepts.node_generic;fillColor=#2072B8;" vertex="1" parent="1">
          <mxGeometry x="370" y="167" width="46" height="52" as="geometry" />
        </mxCell>
        <mxCell id="r3oT0aFOvlcMidn9T6en-19" style="edgeStyle=orthogonalEdgeStyle;rounded=0;orthogonalLoop=1;jettySize=auto;html=1;exitX=0.92;exitY=0.5;exitDx=0;exitDy=0;exitPerimeter=0;" edge="1" parent="1" source="r3oT0aFOvlcMidn9T6en-6" target="r3oT0aFOvlcMidn9T6en-5">
          <mxGeometry relative="1" as="geometry" />
        </mxCell>
        <mxCell id="r3oT0aFOvlcMidn9T6en-6" value="" style="sketch=0;aspect=fixed;pointerEvents=1;shadow=0;dashed=0;html=1;strokeColor=none;labelPosition=center;verticalLabelPosition=bottom;verticalAlign=top;align=center;fillColor=#00188D;shape=mxgraph.mscae.enterprise.wireless_connection" vertex="1" parent="1">
          <mxGeometry x="230" y="168" width="42" height="50" as="geometry" />
        </mxCell>
        <mxCell id="r3oT0aFOvlcMidn9T6en-22" style="edgeStyle=orthogonalEdgeStyle;rounded=0;orthogonalLoop=1;jettySize=auto;html=1;exitX=1;exitY=0.51;exitDx=0;exitDy=0;exitPerimeter=0;entryX=0;entryY=0.5;entryDx=0;entryDy=0;" edge="1" parent="1" source="r3oT0aFOvlcMidn9T6en-7" target="r3oT0aFOvlcMidn9T6en-1">
          <mxGeometry relative="1" as="geometry" />
        </mxCell>
        <mxCell id="r3oT0aFOvlcMidn9T6en-7" value="" style="sketch=0;aspect=fixed;pointerEvents=1;shadow=0;dashed=0;html=1;strokeColor=none;labelPosition=center;verticalLabelPosition=bottom;verticalAlign=top;align=center;fillColor=#00188D;shape=mxgraph.mscae.enterprise.usb" vertex="1" parent="1">
          <mxGeometry x="480" y="180.5" width="50" height="23" as="geometry" />
        </mxCell>
        <mxCell id="r3oT0aFOvlcMidn9T6en-16" style="edgeStyle=orthogonalEdgeStyle;rounded=0;orthogonalLoop=1;jettySize=auto;html=1;" edge="1" parent="1" source="r3oT0aFOvlcMidn9T6en-8" target="r3oT0aFOvlcMidn9T6en-4">
          <mxGeometry relative="1" as="geometry" />
        </mxCell>
        <mxCell id="r3oT0aFOvlcMidn9T6en-8" value="" style="sketch=0;outlineConnect=0;fontColor=#232F3E;gradientColor=none;fillColor=#7AA116;strokeColor=none;dashed=0;verticalLabelPosition=bottom;verticalAlign=top;align=center;html=1;fontSize=12;fontStyle=0;aspect=fixed;pointerEvents=1;shape=mxgraph.aws4.iot_thing_humidity_sensor;" vertex="1" parent="1">
          <mxGeometry x="20" y="90" width="40" height="40" as="geometry" />
        </mxCell>
        <mxCell id="r3oT0aFOvlcMidn9T6en-18" style="edgeStyle=orthogonalEdgeStyle;rounded=0;orthogonalLoop=1;jettySize=auto;html=1;" edge="1" parent="1" source="r3oT0aFOvlcMidn9T6en-9" target="r3oT0aFOvlcMidn9T6en-4">
          <mxGeometry relative="1" as="geometry" />
        </mxCell>
        <mxCell id="r3oT0aFOvlcMidn9T6en-9" value="" style="sketch=0;outlineConnect=0;fontColor=#232F3E;gradientColor=none;fillColor=#7AA116;strokeColor=none;dashed=0;verticalLabelPosition=bottom;verticalAlign=top;align=center;html=1;fontSize=12;fontStyle=0;aspect=fixed;pointerEvents=1;shape=mxgraph.aws4.iot_thing_temperature_sensor;" vertex="1" parent="1">
          <mxGeometry x="10" y="172" width="40" height="40" as="geometry" />
        </mxCell>
        <mxCell id="r3oT0aFOvlcMidn9T6en-15" style="edgeStyle=orthogonalEdgeStyle;rounded=0;orthogonalLoop=1;jettySize=auto;html=1;" edge="1" parent="1" source="r3oT0aFOvlcMidn9T6en-10" target="r3oT0aFOvlcMidn9T6en-4">
          <mxGeometry relative="1" as="geometry" />
        </mxCell>
        <mxCell id="r3oT0aFOvlcMidn9T6en-10" value="" style="sketch=0;outlineConnect=0;fontColor=#232F3E;gradientColor=none;fillColor=#7AA116;strokeColor=none;dashed=0;verticalLabelPosition=bottom;verticalAlign=top;align=center;html=1;fontSize=12;fontStyle=0;aspect=fixed;pointerEvents=1;shape=mxgraph.aws4.iot_thing_humidity_sensor;" vertex="1" parent="1">
          <mxGeometry x="130" y="90" width="40" height="40" as="geometry" />
        </mxCell>
        <mxCell id="r3oT0aFOvlcMidn9T6en-17" style="edgeStyle=orthogonalEdgeStyle;rounded=0;orthogonalLoop=1;jettySize=auto;html=1;" edge="1" parent="1" source="r3oT0aFOvlcMidn9T6en-11" target="r3oT0aFOvlcMidn9T6en-4">
          <mxGeometry relative="1" as="geometry" />
        </mxCell>
        <mxCell id="r3oT0aFOvlcMidn9T6en-11" value="" style="sketch=0;outlineConnect=0;fontColor=#232F3E;gradientColor=none;fillColor=#7AA116;strokeColor=none;dashed=0;verticalLabelPosition=bottom;verticalAlign=top;align=center;html=1;fontSize=12;fontStyle=0;aspect=fixed;pointerEvents=1;shape=mxgraph.aws4.iot_thing_vibration_sensor;" vertex="1" parent="1">
          <mxGeometry x="130" y="260" width="40" height="40" as="geometry" />
        </mxCell>
        <mxCell id="r3oT0aFOvlcMidn9T6en-13" style="edgeStyle=orthogonalEdgeStyle;rounded=0;orthogonalLoop=1;jettySize=auto;html=1;entryX=0;entryY=0.5;entryDx=0;entryDy=0;entryPerimeter=0;" edge="1" parent="1" source="r3oT0aFOvlcMidn9T6en-4" target="r3oT0aFOvlcMidn9T6en-6">
          <mxGeometry relative="1" as="geometry" />
        </mxCell>
        <mxCell id="r3oT0aFOvlcMidn9T6en-21" style="edgeStyle=orthogonalEdgeStyle;rounded=0;orthogonalLoop=1;jettySize=auto;html=1;entryX=0;entryY=0.5;entryDx=0;entryDy=0;entryPerimeter=0;" edge="1" parent="1" source="r3oT0aFOvlcMidn9T6en-5" target="r3oT0aFOvlcMidn9T6en-7">
          <mxGeometry relative="1" as="geometry" />
        </mxCell>
        <mxCell id="r3oT0aFOvlcMidn9T6en-41" value="" style="image;html=1;image=img/lib/clip_art/finance/Graph_128x128.png" vertex="1" parent="1">
          <mxGeometry x="710" y="35" width="80" height="80" as="geometry" />
        </mxCell>
        <mxCell id="r3oT0aFOvlcMidn9T6en-43" value="" style="dashed=0;outlineConnect=0;html=1;align=center;labelPosition=center;verticalLabelPosition=bottom;verticalAlign=top;shape=mxgraph.webicons.json_2;gradientColor=#DFDEDE" vertex="1" parent="1">
          <mxGeometry x="140" y="170.1" width="42.2" height="41.9" as="geometry" />
        </mxCell>
        <mxCell id="r3oT0aFOvlcMidn9T6en-44" value="&lt;font style=&quot;font-size: 8px;&quot;&gt;Humedad Aire&lt;/font&gt;" style="text;html=1;align=center;verticalAlign=middle;resizable=0;points=[];autosize=1;strokeColor=none;fillColor=none;" vertex="1" parent="1">
          <mxGeometry x="5" y="60" width="70" height="30" as="geometry" />
        </mxCell>
        <mxCell id="r3oT0aFOvlcMidn9T6en-46" value="&lt;font style=&quot;font-size: 9px;&quot;&gt;Humedad Tierra&lt;/font&gt;" style="text;html=1;align=center;verticalAlign=middle;resizable=0;points=[];autosize=1;strokeColor=none;fillColor=none;" vertex="1" parent="1">
          <mxGeometry x="110" y="60" width="80" height="30" as="geometry" />
        </mxCell>
        <mxCell id="r3oT0aFOvlcMidn9T6en-47" value="&lt;font style=&quot;font-size: 8px;&quot;&gt;Temperatura&lt;/font&gt;&lt;div&gt;&lt;font style=&quot;font-size: 8px;&quot;&gt;&lt;br&gt;&lt;/font&gt;&lt;/div&gt;" style="text;html=1;align=center;verticalAlign=middle;resizable=0;points=[];autosize=1;strokeColor=none;fillColor=none;" vertex="1" parent="1">
          <mxGeometry y="203" width="60" height="40" as="geometry" />
        </mxCell>
        <mxCell id="r3oT0aFOvlcMidn9T6en-48" value="&lt;font style=&quot;font-size: 8px;&quot;&gt;Luz ambiental&lt;/font&gt;" style="text;html=1;align=center;verticalAlign=middle;resizable=0;points=[];autosize=1;strokeColor=none;fillColor=none;" vertex="1" parent="1">
          <mxGeometry x="115" y="233" width="70" height="30" as="geometry" />
        </mxCell>
        <mxCell id="r3oT0aFOvlcMidn9T6en-49" value="LoRA" style="text;html=1;align=center;verticalAlign=middle;resizable=0;points=[];autosize=1;strokeColor=none;fillColor=none;" vertex="1" parent="1">
          <mxGeometry x="225" y="142" width="50" height="30" as="geometry" />
        </mxCell>
        <mxCell id="r3oT0aFOvlcMidn9T6en-50" value="Nodo ESP32" style="text;html=1;align=center;verticalAlign=middle;resizable=0;points=[];autosize=1;strokeColor=none;fillColor=none;" vertex="1" parent="1">
          <mxGeometry x="50" y="200" width="90" height="30" as="geometry" />
        </mxCell>
        <mxCell id="r3oT0aFOvlcMidn9T6en-51" value="Gateway ESP32" style="text;html=1;align=center;verticalAlign=middle;resizable=0;points=[];autosize=1;strokeColor=none;fillColor=none;" vertex="1" parent="1">
          <mxGeometry x="343" y="208" width="100" height="30" as="geometry" />
        </mxCell>
        <mxCell id="r3oT0aFOvlcMidn9T6en-52" value="ComunicaciÃ³n&lt;div&gt;Serial&lt;/div&gt;" style="text;html=1;align=center;verticalAlign=middle;resizable=0;points=[];autosize=1;strokeColor=none;fillColor=none;" vertex="1" parent="1">
          <mxGeometry x="460" y="142" width="90" height="40" as="geometry" />
        </mxCell>
        <mxCell id="r3oT0aFOvlcMidn9T6en-53" value="PC" style="text;html=1;align=center;verticalAlign=middle;resizable=0;points=[];autosize=1;strokeColor=none;fillColor=none;" vertex="1" parent="1">
          <mxGeometry x="610" y="219" width="40" height="30" as="geometry" />
        </mxCell>
        <mxCell id="r3oT0aFOvlcMidn9T6en-54" value="Node-Red" style="text;html=1;align=center;verticalAlign=middle;resizable=0;points=[];autosize=1;strokeColor=none;fillColor=none;" vertex="1" parent="1">
          <mxGeometry x="780" y="180.5" width="70" height="30" as="geometry" />
        </mxCell>
        <mxCell id="r3oT0aFOvlcMidn9T6en-56" value="Dashboard Node-Red" style="text;html=1;align=center;verticalAlign=middle;resizable=0;points=[];autosize=1;strokeColor=none;fillColor=none;" vertex="1" parent="1">
          <mxGeometry x="685" y="5" width="130" height="30" as="geometry" />
        </mxCell>
        <mxCell id="r3oT0aFOvlcMidn9T6en-57" value="BD SQLite" style="text;html=1;align=center;verticalAlign=middle;resizable=0;points=[];autosize=1;strokeColor=none;fillColor=none;" vertex="1" parent="1">
          <mxGeometry x="710" y="370" width="80" height="30" as="geometry" />
        </mxCell>
      </root>
    </mxGraphModel>
  </diagram>
</mxfile>
